<svg width="15" height="15" viewBox="0 0 15 15" fill="none" xmlns="http://www.w3.org/2000/svg">
<g clip-path="url(#clip0_14601_3552)">
<path d="M10.7686 7.52663C10.4804 7.38961 10.1863 7.27157 9.88701 7.1727C10.8562 6.4452 11.4844 5.28677 11.4844 3.98438C11.4844 1.7874 9.69699 0 7.49999 0C5.30299 0 3.51561 1.7874 3.51561 3.98438C3.51561 5.2882 4.14514 6.44777 5.11619 7.17513C4.2265 7.46804 3.39169 7.92381 2.66102 8.52481C1.32122 9.62687 0.389666 11.164 0.0380161 12.8532C-0.0721988 13.3825 0.0598422 13.9261 0.400213 14.3447C0.738914 14.7611 1.24115 15 1.7781 15H8.99413C9.31774 15 9.58007 14.7377 9.58007 14.4141C9.58007 14.0904 9.31774 13.8281 8.99413 13.8281H1.7781C1.52797 13.8281 1.37706 13.6885 1.30938 13.6053C1.19252 13.4616 1.14728 13.2745 1.18528 13.092C1.79334 10.1713 4.36959 8.03771 7.34466 7.96576C7.39619 7.96775 7.44796 7.96875 7.49999 7.96875C7.55252 7.96875 7.60481 7.96772 7.65684 7.9657C8.56856 7.98709 9.44542 8.19516 10.2656 8.58504C10.5578 8.72391 10.9074 8.59966 11.0463 8.30736C11.1852 8.0151 11.0609 7.66556 10.7686 7.52663ZM7.6429 6.79327C7.59535 6.79242 7.54771 6.79198 7.49999 6.79198C7.4527 6.79198 7.40542 6.79245 7.35819 6.79333C5.87299 6.71924 4.68749 5.48766 4.68749 3.98438C4.68749 2.43354 5.94916 1.17188 7.49999 1.17188C9.05082 1.17188 10.3125 2.43354 10.3125 3.98438C10.3125 5.48728 9.12758 6.71862 7.6429 6.79327Z" fill="url(#paint0_linear_14601_3552)"/>
<path d="M14.418 11.6309H12.8066V10.0195C12.8066 9.69592 12.5443 9.43359 12.2207 9.43359C11.8971 9.43359 11.6348 9.69592 11.6348 10.0195V11.6309H10.0234C9.69982 11.6309 9.4375 11.8932 9.4375 12.2168C9.4375 12.5404 9.69982 12.8027 10.0234 12.8027H11.6348V14.4141C11.6348 14.7377 11.8971 15 12.2207 15C12.5443 15 12.8066 14.7377 12.8066 14.4141V12.8027H14.418C14.7416 12.8027 15.0039 12.5404 15.0039 12.2168C15.0039 11.8932 14.7416 11.6309 14.418 11.6309Z" fill="url(#paint1_linear_14601_3552)"/>
</g>
<defs>
<linearGradient id="paint0_linear_14601_3552" x1="2.27282e-08" y1="7.03125" x2="11.4844" y2="7.03125" gradientUnits="userSpaceOnUse">
<stop stop-color="#262262"/>
<stop offset="1" stop-color="#4E45C8"/>
</linearGradient>
<linearGradient id="paint1_linear_14601_3552" x1="9.4375" y1="12.0428" x2="15.0039" y2="12.0428" gradientUnits="userSpaceOnUse">
<stop stop-color="#262262"/>
<stop offset="1" stop-color="#4E45C8"/>
</linearGradient>
<clipPath id="clip0_14601_3552">
<rect width="15" height="15" fill="white"/>
</clipPath>
</defs>
</svg>
