<svg width="16" height="16" viewBox="0 0 16 16" fill="none" xmlns="http://www.w3.org/2000/svg">
<g clip-path="url(#clip0_14681_43)">
<path d="M7.9999 9.50191C7.96547 9.50189 7.93146 9.49429 7.90029 9.47964L0.634669 6.06128C0.594404 6.04236 0.560359 6.01236 0.536511 5.9748C0.512664 5.93724 0.5 5.89367 0.5 5.84917C0.5 5.80468 0.512664 5.76111 0.536511 5.72355C0.560359 5.68599 0.594404 5.65599 0.634669 5.63706L7.90029 2.21753C7.93146 2.2029 7.96547 2.19531 7.9999 2.19531C8.03434 2.19531 8.06835 2.2029 8.09951 2.21753L15.3651 5.63706C15.4054 5.65599 15.4394 5.68599 15.4633 5.72355C15.4871 5.76111 15.4998 5.80468 15.4998 5.84917C15.4998 5.89367 15.4871 5.93724 15.4633 5.9748C15.4394 6.01236 15.4054 6.04236 15.3651 6.06128L8.09951 9.47964C8.06835 9.49429 8.03434 9.50189 7.9999 9.50191ZM1.28506 5.84917L7.9999 9.01324L14.7147 5.84917L7.9999 2.68863L1.28506 5.84917Z" fill="white"/>
<path d="M3.3125 9.875C3.25034 9.875 3.19073 9.85031 3.14677 9.80635C3.10282 9.7624 3.07812 9.70279 3.07812 9.64062V7.17969C3.07812 7.11753 3.10282 7.05791 3.14677 7.01396C3.19073 6.97001 3.25034 6.94531 3.3125 6.94531C3.37466 6.94531 3.43427 6.97001 3.47823 7.01396C3.52218 7.05791 3.54688 7.11753 3.54688 7.17969V9.64062C3.54688 9.70279 3.52218 9.7624 3.47823 9.80635C3.43427 9.85031 3.37466 9.875 3.3125 9.875Z" fill="white"/>
<path d="M12.6875 9.875C12.6253 9.875 12.5657 9.85031 12.5218 9.80635C12.4778 9.7624 12.4531 9.70279 12.4531 9.64062V7.17969C12.4531 7.11753 12.4778 7.05791 12.5218 7.01396C12.5657 6.97001 12.6253 6.94531 12.6875 6.94531C12.7497 6.94531 12.8093 6.97001 12.8532 7.01396C12.8972 7.05791 12.9219 7.11753 12.9219 7.17969V9.64062C12.9219 9.70279 12.8972 9.7624 12.8532 9.80635C12.8093 9.85031 12.7497 9.875 12.6875 9.875Z" fill="white"/>
<path d="M8 12.2809C5.34922 12.2809 3.07812 10.8289 3.07812 9.64062C3.07812 9.57846 3.10282 9.51885 3.14677 9.4749C3.19073 9.43094 3.25034 9.40625 3.3125 9.40625C3.37466 9.40625 3.43427 9.43094 3.47823 9.4749C3.52218 9.51885 3.54688 9.57846 3.54688 9.64062C3.54688 10.3836 5.42188 11.8121 8 11.8121C10.5781 11.8121 12.4531 10.3836 12.4531 9.64062C12.4531 9.57846 12.4778 9.51885 12.5218 9.4749C12.5657 9.43094 12.6253 9.40625 12.6875 9.40625C12.7497 9.40625 12.8093 9.43094 12.8532 9.4749C12.8972 9.51885 12.9219 9.57846 12.9219 9.64062C12.9219 10.8289 10.6508 12.2809 8 12.2809Z" fill="white"/>
<path d="M11.5143 12.3352C11.4521 12.3352 11.3925 12.3106 11.3486 12.2666C11.3046 12.2226 11.2799 12.163 11.2799 12.1009V7.67587L7.89436 5.98251C7.86584 5.96941 7.84024 5.95072 7.81908 5.92753C7.79792 5.90435 7.78163 5.87716 7.77118 5.84756C7.76073 5.81796 7.75633 5.78657 7.75825 5.75524C7.76016 5.72391 7.76835 5.69329 7.78232 5.66518C7.7963 5.63708 7.81577 5.61207 7.83959 5.59163C7.86342 5.5712 7.8911 5.55576 7.92101 5.54623C7.95091 5.53669 7.98243 5.53327 8.01368 5.53614C8.04493 5.53902 8.07529 5.54815 8.10295 5.56298L11.6186 7.32079C11.6576 7.3402 11.6905 7.37011 11.7135 7.40717C11.7364 7.44422 11.7486 7.48696 11.7487 7.53056V12.1009C11.7487 12.163 11.724 12.2226 11.68 12.2666C11.6361 12.3106 11.5764 12.3352 11.5143 12.3352Z" fill="white"/>
<path d="M11.5156 13.3906C11.3766 13.3906 11.2406 13.3494 11.125 13.2721C11.0094 13.1949 10.9192 13.0851 10.866 12.9566C10.8128 12.8281 10.7989 12.6867 10.826 12.5503C10.8531 12.4139 10.9201 12.2886 11.0184 12.1903C11.1168 12.092 11.2421 12.025 11.3785 11.9979C11.5148 11.9708 11.6562 11.9847 11.7847 12.0379C11.9132 12.0911 12.023 12.1812 12.1003 12.2969C12.1775 12.4125 12.2188 12.5484 12.2188 12.6875C12.2188 12.874 12.1447 13.0528 12.0128 13.1847C11.8809 13.3165 11.7021 13.3906 11.5156 13.3906ZM11.5156 12.4531C11.4693 12.4531 11.424 12.4669 11.3854 12.4926C11.3469 12.5184 11.3168 12.555 11.2991 12.5978C11.2814 12.6406 11.2767 12.6878 11.2858 12.7332C11.2948 12.7787 11.3171 12.8205 11.3499 12.8532C11.3827 12.886 11.4244 12.9083 11.4699 12.9174C11.5154 12.9264 11.5625 12.9218 11.6053 12.904C11.6481 12.8863 11.6847 12.8563 11.7105 12.8177C11.7363 12.7792 11.75 12.7339 11.75 12.6875C11.75 12.6253 11.7253 12.5657 11.6814 12.5218C11.6374 12.4778 11.5778 12.4531 11.5156 12.4531Z" fill="white"/>
<path d="M11.868 14.7965H11.1649C11.1324 14.7966 11.1002 14.7899 11.0704 14.7769C11.0406 14.7639 11.0138 14.7448 10.9917 14.7209C10.9697 14.697 10.9529 14.6688 10.9423 14.638C10.9318 14.6072 10.9278 14.5746 10.9305 14.5422L11.0477 13.1359C11.0501 13.0737 11.077 13.0151 11.1226 12.9728C11.1682 12.9304 11.2287 12.908 11.2909 12.9103C11.353 12.9127 11.4117 12.9396 11.454 12.9852C11.4963 13.0308 11.5188 13.0913 11.5165 13.1535C11.5141 13.0913 11.5366 13.0308 11.5789 12.9852C11.6212 12.9396 11.6799 12.9127 11.7421 12.9103C11.8042 12.908 11.8648 12.9304 11.9104 12.9728C11.956 13.0151 11.9829 13.0737 11.9852 13.1359L12.1024 14.5422C12.1052 14.5746 12.1012 14.6072 12.0906 14.638C12.0801 14.6688 12.0633 14.697 12.0412 14.7209C12.0192 14.7448 11.9924 14.7639 11.9626 14.7769C11.9328 14.7899 11.9006 14.7966 11.868 14.7965ZM11.4192 14.3277H11.6137L11.5165 13.1758C11.5159 13.1699 11.5159 13.164 11.5165 13.1582C11.5171 13.164 11.5171 13.1699 11.5165 13.1758L11.4192 14.3277Z" fill="white"/>
</g>
<defs>
<clipPath id="clip0_14681_43">
<rect width="15" height="15" fill="white" transform="translate(0.5 0.5)"/>
</clipPath>
</defs>
</svg>
