<svg width="16" height="16" viewBox="0 0 16 16" fill="none" xmlns="http://www.w3.org/2000/svg">
<g clip-path="url(#clip0_14706_56)">
<path d="M10.3865 6.93262L10.0203 7.2959C9.94995 7.36621 9.94995 7.48047 10.0203 7.55078L12.9441 10.4746C13.0144 10.5449 13.1287 10.5449 13.199 10.4746L13.5623 10.1113C13.6326 10.041 13.6326 9.92676 13.5623 9.85645L10.6384 6.93262C10.6033 6.89746 10.5564 6.87988 10.5095 6.87988C10.4656 6.87988 10.4216 6.89746 10.3865 6.93262ZM9.73023 7.00586L10.0935 6.64258C10.2078 6.52832 10.3601 6.46973 10.5125 6.46973C10.6648 6.46973 10.8142 6.52832 10.9314 6.64258L13.8552 9.56641C14.0867 9.79785 14.0867 10.1729 13.8552 10.4014L13.4919 10.7646C13.2605 10.9961 12.8855 10.9961 12.657 10.7646L12.5105 10.6182L12.241 10.8848L11.2917 11.957C11.781 12.5488 11.3152 13.2695 10.7703 13.3076C10.7439 13.7295 10.3044 14.1367 9.8855 14.1016C9.73315 14.5469 9.0271 15.0771 8.6228 14.7168L8.44702 14.5674L8.10425 14.9102C7.79956 15.2148 7.36597 15.0947 7.10229 14.8281C7.00561 14.7314 6.92651 14.6113 6.88257 14.4824C6.46362 14.6582 5.95093 14.292 5.8396 13.8555C5.35327 13.9463 4.81128 13.4043 4.89917 12.915C4.4187 12.7891 4.03491 12.1914 4.33081 11.7637L3.74487 10.8672L3.49585 10.6182L3.34937 10.7646C3.11792 10.9961 2.74292 10.9961 2.5144 10.7646L2.14233 10.4014C1.91089 10.1699 1.91089 9.79492 2.14233 9.56641L5.06616 6.64258C5.18042 6.52832 5.33276 6.46973 5.48511 6.46973C5.63745 6.46973 5.78687 6.52832 5.90405 6.64258L6.26733 7.00586C6.49878 7.23731 6.49878 7.61231 6.26733 7.84082L6.19702 7.91113L6.41968 8.13379L7.56812 8.37695C7.57397 8.37695 7.57983 8.37988 7.58569 8.37988C7.80835 8.24805 8.14819 8.17188 8.44409 8.14551H8.45874L9.59839 8.11914L9.8064 7.91113L9.73608 7.84082C9.50171 7.61231 9.50171 7.23731 9.73023 7.00586ZM7.30737 14.1133C7.07886 14.3418 7.58276 14.8457 7.81128 14.6172L8.35034 14.0781C8.57886 13.8496 8.07495 13.3457 7.84644 13.5742L7.30737 14.1133ZM8.02515 13.1084C8.54956 13.1465 9.03296 13.8057 8.72241 14.2715L8.8894 14.415C8.93628 14.4561 9.04468 14.418 9.15894 14.3447C9.27319 14.2715 9.39038 14.1602 9.45483 14.0459C9.48999 13.9844 9.51343 13.9346 9.50464 13.9258L9.51929 13.9111C9.48999 13.9023 9.46362 13.8848 9.44019 13.8643L8.61401 13.0293C8.53491 12.9502 8.53491 12.8213 8.61401 12.7393C8.69312 12.6602 8.82202 12.6602 8.90405 12.7393L9.73316 13.5684C9.75659 13.5918 9.77124 13.6182 9.78003 13.6445L9.79468 13.6299C9.94995 13.7852 10.2195 13.6035 10.3162 13.416C10.363 13.3252 10.3718 13.2227 10.3132 13.1465C10.3074 13.1406 10.3015 13.1348 10.2957 13.1289L9.35815 12.1855C9.27905 12.1064 9.27905 11.9775 9.35815 11.8955C9.43726 11.8164 9.56616 11.8164 9.64819 11.8955L10.5593 12.8125C10.5681 12.8184 10.5769 12.8271 10.5857 12.833C10.8201 13.0586 11.3474 12.5752 10.9255 12.1592C10.9167 12.1504 10.908 12.1387 10.8992 12.127L10.8669 12.1006L9.26147 10.5039C8.90991 10.1553 8.47046 9.88867 8.1189 10.2432C7.64429 10.7207 7.09936 10.7412 6.70679 10.5859C6.48706 10.501 6.27319 10.3428 6.17358 10.1436C6.0769 9.95313 6.08862 9.75391 6.24683 9.60156C6.26733 9.58399 6.28784 9.56934 6.31128 9.56055C6.76245 9.3584 6.99097 9.0625 7.21069 8.77246C7.22534 8.75488 7.23706 8.73731 7.25171 8.71973L6.28784 8.51758C6.2439 8.51172 6.20288 8.49121 6.17065 8.45898L5.91284 8.20117L3.78589 10.3281L4.04663 10.5889C4.08179 10.624 4.55054 11.3506 4.62085 11.4561L5.17749 10.8994C5.48218 10.5947 5.91577 10.7148 6.17944 10.9814C6.32007 11.1221 6.42554 11.3184 6.44019 11.5146C6.83276 11.5439 7.20483 11.916 7.23413 12.3086C7.62085 12.3408 7.99878 12.7158 8.02515 13.1084ZM6.78882 14.0547L7.5564 13.2871C7.78491 13.0586 7.28101 12.5547 7.05249 12.7832L6.28491 13.5508C6.05347 13.7793 6.5603 14.2832 6.78882 14.0547ZM6.25562 11.9863L5.3562 12.8887C5.12769 13.1172 5.63159 13.6211 5.86011 13.3926L6.76245 12.4902C6.99097 12.2646 6.48706 11.7578 6.25562 11.9863ZM11.9539 10.5918L12.2117 10.3311L10.0847 8.2041L9.82397 8.46191C9.78882 8.49707 9.73901 8.52051 9.68335 8.52051L8.46753 8.54688C8.28882 8.56445 8.12769 8.59961 7.99585 8.64062C7.86401 8.68164 7.77612 8.71973 7.75562 8.74609C7.67944 8.83105 7.6062 8.92773 7.53296 9.02441C7.28687 9.34668 7.03491 9.6748 6.51929 9.91797C6.52222 9.96777 6.59546 10.0498 6.64233 10.0908C6.94116 10.3369 7.43628 10.3486 7.82593 9.95605C8.06323 9.71875 8.34448 9.62793 8.65796 9.68359C8.93921 9.73633 9.23804 9.91211 9.54565 10.2168L10.9958 11.6582L11.9275 10.6094C11.9392 10.6064 11.9451 10.5977 11.9539 10.5918ZM5.46167 11.1924L4.69409 11.96C4.46558 12.1885 4.96948 12.6924 5.198 12.4639L5.96558 11.6963C6.19409 11.4707 5.69019 10.9639 5.46167 11.1924ZM5.97436 7.2959L5.61108 6.93262C5.57593 6.89746 5.52905 6.87988 5.48218 6.87988C5.4353 6.87988 5.38843 6.89746 5.35327 6.93262L2.43237 9.85645C2.36206 9.92676 2.36206 10.041 2.43237 10.1113L2.79565 10.4746C2.86597 10.5449 2.98022 10.5449 3.05054 10.4746L5.97436 7.55078C6.04468 7.4834 6.04468 7.36621 5.97436 7.2959ZM7.48608 2.91016H8.51147C8.62573 2.91016 8.71655 3.00098 8.71655 3.11523V3.72168L10.5623 3.44043V2.22754H5.4353V3.44336L7.27808 3.72461V3.11523C7.28101 3.00391 7.37183 2.91016 7.48608 2.91016ZM8.71655 4.1377V4.66797C8.71655 4.78223 8.62573 4.87305 8.51147 4.87305H7.48608C7.37183 4.87305 7.28101 4.78223 7.28101 4.66797V4.1377L5.66382 3.8916V5.66406H10.3337V3.8916L8.71655 4.1377ZM8.3064 3.32031H7.69116V4.45996H8.3064V3.32031ZM6.82104 1.81738V1.45996C6.82104 1.14648 7.10229 0.90625 7.4187 0.90625H8.58179C8.89819 0.90625 9.17944 1.14355 9.17944 1.45996V1.81738H10.7703C10.8845 1.81738 10.9753 1.9082 10.9753 2.02246V3.61914C10.9753 3.71875 10.9021 3.80664 10.7996 3.82129L10.7468 3.83008V5.86914C10.7468 5.9834 10.656 6.07422 10.5417 6.07422H5.45874C5.34448 6.07422 5.25366 5.9834 5.25366 5.86914V3.83008L5.20679 3.82129C5.10425 3.80957 5.02515 3.72461 5.02515 3.61914V2.02246C5.02515 1.9082 5.11597 1.81738 5.23022 1.81738H6.82104ZM8.76636 1.81738V1.45996C8.76636 1.375 8.66968 1.31934 8.58179 1.31934H7.4187C7.32788 1.31934 7.23413 1.375 7.23413 1.45996V1.81738H8.76636Z" fill="white"/>
</g>
<defs>
<clipPath id="clip0_14706_56">
<rect width="15" height="15" fill="white" transform="translate(0.5 0.5)"/>
</clipPath>
</defs>
</svg>
