<svg width="60" height="60" viewBox="0 0 60 60" fill="none" xmlns="http://www.w3.org/2000/svg">
<g clip-path="url(#clip0_14601_3586)">
<path d="M42.821 47.8192V59.8193C42.821 60.2738 42.4574 60.7283 41.9119 60.7283H34.0028C33.4574 60.7283 33.0938 60.2738 33.0938 59.8193V47.8192C33.0938 47.3647 33.4574 46.9102 34.0028 46.9102H41.9119C42.4574 46.9102 42.821 47.2738 42.821 47.8192Z" fill="url(#paint0_linear_14601_3586)"/>
<path d="M29.3679 51.8192V59.7283C29.3679 60.1829 29.0043 60.6374 28.4588 60.6374H20.5497C20.0043 60.6374 19.6406 60.1829 19.6406 59.7283V51.8192C19.6406 51.2738 20.0043 50.9102 20.5497 50.9102H28.4588C28.9134 50.9102 29.3679 51.3647 29.3679 51.8192Z" fill="url(#paint1_linear_14601_3586)"/>
<path d="M15.821 55.8192V59.7283C15.821 60.1829 15.4574 60.6374 14.9119 60.6374H7.00284C6.45739 60.6374 6.09375 60.1829 6.09375 59.7283V55.8192C6.09375 55.2738 6.45739 54.9102 7.00284 54.9102H14.9119C15.4574 54.9102 15.821 55.2738 15.821 55.8192Z" fill="url(#paint2_linear_14601_3586)"/>
<path d="M56.2741 41.8192V59.7283C56.2741 60.1829 55.9105 60.6374 55.3651 60.6374H47.456C46.9105 60.6374 46.5469 60.1829 46.5469 59.7283V41.8192C46.5469 41.2738 46.9105 40.9102 47.456 40.9102H55.3651C55.9105 40.9102 56.2741 41.2738 56.2741 41.8192Z" fill="url(#paint3_linear_14601_3586)"/>
<path d="M55.9979 30.1822L51.8161 37.4549C51.6342 37.7276 51.2706 37.9094 50.9979 37.9094C50.6342 37.9094 50.3615 37.6367 50.1797 37.364L49.6342 36.0004L7.2706 53.0004C7.17969 53.0004 7.08878 53.0913 6.90696 53.0913C6.81605 53.0913 6.63423 53.0913 6.54332 53.0004C6.36151 52.9094 6.17969 52.7276 6.08878 52.5458L3.99787 47.364C3.81605 46.9094 3.99787 46.364 4.54332 46.1822L46.907 29.0913L46.3615 27.7276C46.2706 27.4549 46.2706 27.0004 46.5433 26.8185C46.7251 26.5458 47.1797 26.4549 47.4524 26.5458L55.5433 28.8185C55.8161 28.9094 55.9979 29.0913 56.1797 29.364C56.1797 29.6367 56.1797 29.9094 55.9979 30.1822Z" fill="url(#paint4_linear_14601_3586)"/>
<path d="M30.4492 7.27338C30.2673 8.27338 29.631 9.18247 28.7219 9.72793C28.0855 10.0916 27.3583 10.3643 26.631 10.3643C26.3583 10.3643 26.0855 10.3643 25.7219 10.2734C24.7219 10.0007 23.8128 9.4552 23.2673 8.54611C22.7219 7.63702 22.5401 6.63702 22.8128 5.54611C22.9946 4.54611 23.631 3.63702 24.5401 3.09156C25.4492 2.54611 26.4492 2.36429 27.5401 2.63702C28.5401 2.81884 29.4492 3.4552 29.9946 4.36429C30.4492 5.18247 30.631 6.27338 30.4492 7.27338Z" fill="url(#paint5_linear_14601_3586)"/>
<path d="M38.0894 18.7287V18.6378C37.9076 17.456 36.7258 16.5469 35.4531 16.7287H33.544C32.9985 16.7287 32.2712 16.456 31.9076 16.0014L29.9076 13.8196C28.9985 12.9105 27.9076 12.1832 26.6349 11.9105L23.544 11.1832C22.544 11.0014 21.544 11.0014 20.544 11.1832L17.0894 12.0923C16.1803 12.3651 15.3621 12.9105 14.9076 13.8196L12.9076 17.3651C12.8167 17.3651 12.6349 17.3651 12.544 17.3651C12.1803 17.456 11.8167 17.7287 11.6349 18.0923L10.8167 19.456L10.1803 19.0923C8.9076 18.3651 7.27124 18.7287 6.54396 20.0014L5.81669 20.9105L4.08942 23.8196C3.36214 25.0923 3.72578 26.7287 4.99851 27.456L11.7258 31.456C12.1803 31.7287 12.6349 31.8196 13.0894 31.8196C13.9985 31.8196 14.9076 31.3651 15.3621 30.5469L17.7258 26.6378C18.4531 25.3651 18.0894 23.7287 16.8167 23.0014L16.2712 22.7287L17.0894 21.456C17.3621 20.9105 17.3621 20.2741 17.0894 19.8196C17.1803 19.7287 17.2712 19.5469 17.2712 19.456L18.2712 17.456C18.4531 17.0014 18.9076 16.6378 19.3621 16.5469L20.1803 16.3651L18.7258 23.5469C18.6349 23.9105 18.7258 24.3651 18.8167 24.7287L19.3621 30.456L15.4531 36.2742C15.0894 36.8196 14.9985 37.456 15.0894 38.0923C15.1803 38.7287 15.6349 39.2741 16.1803 39.6378C16.4531 39.8196 16.8167 39.9105 17.1803 40.0014H17.4531C18.2712 40.0014 18.9985 39.6378 19.4531 38.9105L23.7258 32.456C24.0894 31.9105 24.1803 31.3651 24.1803 30.7287L23.9076 27.9105L25.8167 28.6378L24.9985 33.3651C24.6349 34.5469 25.2712 35.7287 26.4531 36.1832C26.7258 36.2741 26.9985 36.3651 27.2712 36.3651C28.0894 36.3651 28.9076 35.9105 29.2712 35.1832C29.3621 35.0923 29.3621 35.0014 29.3621 34.9105L30.544 28.2741C30.8167 26.9105 30.1803 25.5469 28.9985 24.8196L26.7258 23.5469L27.7258 18.8196L28.8167 19.8196C30.2712 21.0923 32.0894 21.7287 33.9985 21.6378L36.0894 21.5469C36.7258 21.456 37.2712 21.1832 37.6349 20.6378C38.0894 20.0014 38.1803 19.3651 38.0894 18.7287ZM12.9076 19.3651C13.1803 19.8196 13.544 20.2741 14.0894 20.5469C14.4531 20.7287 14.9076 20.8196 15.2712 20.7287L14.7258 21.8196L12.3621 20.3651L12.9076 19.3651ZM16.1803 25.8196L16.0894 26.0014L7.9076 21.0923L7.99851 20.9105C8.27124 20.456 8.72578 20.3651 9.18033 20.6378L15.9076 24.6378C16.2712 24.8196 16.3621 25.3651 16.1803 25.8196Z" fill="url(#paint6_linear_14601_3586)"/>
</g>
<defs>
<linearGradient id="paint0_linear_14601_3586" x1="33.0937" y1="54.5965" x2="42.821" y2="54.5965" gradientUnits="userSpaceOnUse">
<stop stop-color="#2981FA"/>
<stop offset="1" stop-color="#18A7F7"/>
</linearGradient>
<linearGradient id="paint1_linear_14601_3586" x1="19.6406" y1="56.3209" x2="29.3679" y2="56.3209" gradientUnits="userSpaceOnUse">
<stop stop-color="#2981FA"/>
<stop offset="1" stop-color="#18A7F7"/>
</linearGradient>
<linearGradient id="paint2_linear_14601_3586" x1="6.09375" y1="58.0959" x2="15.821" y2="58.0959" gradientUnits="userSpaceOnUse">
<stop stop-color="#2981FA"/>
<stop offset="1" stop-color="#18A7F7"/>
</linearGradient>
<linearGradient id="paint3_linear_14601_3586" x1="46.5469" y1="51.8834" x2="56.2741" y2="51.8834" gradientUnits="userSpaceOnUse">
<stop stop-color="#2981FA"/>
<stop offset="1" stop-color="#18A7F7"/>
</linearGradient>
<linearGradient id="paint4_linear_14601_3586" x1="3.92969" y1="41.2966" x2="56.1797" y2="41.2966" gradientUnits="userSpaceOnUse">
<stop stop-color="#2981FA"/>
<stop offset="1" stop-color="#18A7F7"/>
</linearGradient>
<linearGradient id="paint5_linear_14601_3586" x1="22.6875" y1="6.87971" x2="30.5188" y2="6.87971" gradientUnits="userSpaceOnUse">
<stop stop-color="#2981FA"/>
<stop offset="1" stop-color="#18A7F7"/>
</linearGradient>
<linearGradient id="paint6_linear_14601_3586" x1="3.71875" y1="27.1528" x2="38.1211" y2="27.1528" gradientUnits="userSpaceOnUse">
<stop stop-color="#2981FA"/>
<stop offset="1" stop-color="#18A7F7"/>
</linearGradient>
<clipPath id="clip0_14601_3586">
<rect width="60" height="60" fill="white"/>
</clipPath>
</defs>
</svg>
