<svg width="16" height="16" viewBox="0 0 16 16" fill="none" xmlns="http://www.w3.org/2000/svg">
<g clip-path="url(#clip0_14677_210)">
<path d="M8 15.5C12.135 15.5 15.5 12.135 15.5 8C15.5 3.86501 12.135 0.5 8 0.5C3.86497 0.5 0.5 3.86501 0.5 8C0.5 12.135 3.86501 15.5 8 15.5ZM8 1.49998C11.585 1.49998 14.5 4.41497 14.5 8C14.5 11.585 11.585 14.5 8 14.5C4.41497 14.5 1.49998 11.585 1.49998 8C1.49998 4.41497 4.41501 1.49998 8 1.49998Z" fill="url(#paint0_linear_14677_210)"/>
<path d="M10.1875 10.39C10.28 10.465 10.39 10.5 10.5 10.5C10.6475 10.5 10.7925 10.435 10.89 10.3125C11.0625 10.0975 11.0275 9.7825 10.8125 9.60999L8.49998 7.75999V3.99999C8.49998 3.72499 8.275 3.5 7.99999 3.5C7.72499 3.5 7.5 3.72499 7.5 3.99999V8.00001C7.5 8.15252 7.57001 8.29501 7.6875 8.38999L10.1875 10.39Z" fill="url(#paint1_linear_14677_210)"/>
</g>
<defs>
<linearGradient id="paint0_linear_14677_210" x1="0.5" y1="8.84375" x2="15.5" y2="8.84375" gradientUnits="userSpaceOnUse">
<stop stop-color="#2981FA"/>
<stop offset="1" stop-color="#18A7F7"/>
</linearGradient>
<linearGradient id="paint1_linear_14677_210" x1="7.5" y1="7.39375" x2="10.9996" y2="7.39375" gradientUnits="userSpaceOnUse">
<stop stop-color="#2981FA"/>
<stop offset="1" stop-color="#18A7F7"/>
</linearGradient>
<clipPath id="clip0_14677_210">
<rect width="15" height="15" fill="white" transform="translate(0.5 0.5)"/>
</clipPath>
</defs>
</svg>
