<svg width="16" height="16" viewBox="0 0 16 16" fill="none" xmlns="http://www.w3.org/2000/svg">
<path d="M13.625 11.75V9.875C13.625 9.75068 13.5756 9.63145 13.4877 9.54354C13.3998 9.45564 13.2806 9.40625 13.1562 9.40625C13.0319 9.40625 12.9127 9.45564 12.8248 9.54354C12.7369 9.63145 12.6875 9.75068 12.6875 9.875V11.75C12.6875 11.8743 12.6381 11.9935 12.5502 12.0815C12.4623 12.1694 12.3431 12.2188 12.2188 12.2188H3.78125C3.65693 12.2188 3.5377 12.1694 3.44979 12.0815C3.36189 11.9935 3.3125 11.8743 3.3125 11.75V9.875C3.3125 9.75068 3.26311 9.63145 3.17521 9.54354C3.0873 9.45564 2.96807 9.40625 2.84375 9.40625C2.71943 9.40625 2.6002 9.45564 2.51229 9.54354C2.42439 9.63145 2.375 9.75068 2.375 9.875V11.75C2.375 12.123 2.52316 12.4806 2.78688 12.7444C3.0506 13.0081 3.40829 13.1562 3.78125 13.1562H12.2188C12.5917 13.1562 12.9494 13.0081 13.2131 12.7444C13.4768 12.4806 13.625 12.123 13.625 11.75ZM10.6344 9.30313L8.29063 11.1781C8.20787 11.2435 8.10548 11.2791 8 11.2791C7.89452 11.2791 7.79213 11.2435 7.70937 11.1781L5.36563 9.30313C5.28023 9.22252 5.2282 9.11279 5.21983 8.99565C5.21146 8.87851 5.24737 8.7625 5.32044 8.67057C5.39351 8.57864 5.49843 8.51749 5.61443 8.49921C5.73044 8.48094 5.84908 8.50687 5.94687 8.57187L7.53125 9.8375V3.3125C7.53125 3.18818 7.58064 3.06895 7.66854 2.98104C7.75645 2.89314 7.87568 2.84375 8 2.84375C8.12432 2.84375 8.24355 2.89314 8.33146 2.98104C8.41936 3.06895 8.46875 3.18818 8.46875 3.3125V9.8375L10.0531 8.57187C10.1003 8.52732 10.1563 8.49305 10.2174 8.47125C10.2785 8.44944 10.3435 8.44057 10.4083 8.44519C10.473 8.44982 10.5361 8.46784 10.5935 8.49811C10.6509 8.52839 10.7014 8.57026 10.7418 8.62107C10.7822 8.67189 10.8116 8.73053 10.8282 8.7933C10.8447 8.85607 10.848 8.92159 10.8379 8.9857C10.8278 9.04982 10.8045 9.11114 10.7695 9.16578C10.7344 9.22042 10.6884 9.26719 10.6344 9.30313Z" fill="url(#paint0_linear_14677_223)"/>
<defs>
<linearGradient id="paint0_linear_14677_223" x1="2.375" y1="8.58008" x2="13.625" y2="8.58008" gradientUnits="userSpaceOnUse">
<stop stop-color="#2981FA"/>
<stop offset="1" stop-color="#18A7F7"/>
</linearGradient>
</defs>
</svg>
