<svg width="16" height="16" viewBox="0 0 16 16" fill="none" xmlns="http://www.w3.org/2000/svg">
<g clip-path="url(#clip0_14677_218)">
<path d="M15.0633 3.16418C15.0624 3.16418 15.0615 3.16406 15.0605 3.16406H11.0762V2.72461C11.0762 1.99768 10.4847 1.40625 9.75781 1.40625H6.24219C5.51526 1.40625 4.92383 1.99768 4.92383 2.72461V3.16406H0.939453C0.694778 3.16406 0.5 3.36456 0.5 3.60352V13.2715C0.5 13.9984 1.09143 14.5898 1.81836 14.5898H14.1816C14.9086 14.5898 15.5 13.9984 15.5 13.2715V3.61279C15.5 3.61221 15.5 3.61164 15.5 3.61107C15.4832 3.32245 15.3057 3.16578 15.0633 3.16418ZM5.80273 2.72461C5.80273 2.48234 5.99992 2.28516 6.24219 2.28516H9.75781C10.0001 2.28516 10.1973 2.48234 10.1973 2.72461V3.16406H5.80273V2.72461ZM14.4508 4.04297L13.0861 8.13698C13.0262 8.31676 12.8587 8.4375 12.6693 8.4375H10.1973V7.99805C10.1973 7.75532 10.0005 7.55859 9.75781 7.55859H6.24219C5.99946 7.55859 5.80273 7.75532 5.80273 7.99805V8.4375H3.3307C3.1413 8.4375 2.97375 8.31676 2.9139 8.13698L1.54919 4.04297H14.4508ZM9.31836 8.4375V9.31641H6.68164V8.4375H9.31836ZM14.6211 13.2715C14.6211 13.5138 14.4239 13.7109 14.1816 13.7109H1.81836C1.57609 13.7109 1.37891 13.5138 1.37891 13.2715V6.31153L2.08009 8.41496C2.25976 8.9542 2.76238 9.31641 3.3307 9.31641H5.80273V9.75586C5.80273 9.99859 5.99946 10.1953 6.24219 10.1953H9.75781C10.0005 10.1953 10.1973 9.99859 10.1973 9.75586V9.31641H12.6693C13.2376 9.31641 13.7402 8.9542 13.9199 8.41496L14.6211 6.31153V13.2715Z" fill="url(#paint0_linear_14677_218)"/>
</g>
<defs>
<linearGradient id="paint0_linear_14677_218" x1="0.5" y1="8.73962" x2="15.5" y2="8.73962" gradientUnits="userSpaceOnUse">
<stop stop-color="#2981FA"/>
<stop offset="1" stop-color="#18A7F7"/>
</linearGradient>
<clipPath id="clip0_14677_218">
<rect width="15" height="15" fill="white" transform="translate(0.5 0.5)"/>
</clipPath>
</defs>
</svg>
