<svg width="60" height="60" viewBox="0 0 60 60" fill="none" xmlns="http://www.w3.org/2000/svg">
<g clip-path="url(#clip0_14601_3563)">
<path fill-rule="evenodd" clip-rule="evenodd" d="M30.368 8.78227L32.2573 13.7585C32.3142 13.9082 32.4464 14.0041 32.6062 14.012L37.9227 14.2711C38.0892 14.2792 38.2263 14.3841 38.2779 14.5426C38.3293 14.7012 38.2801 14.8666 38.1501 14.9711L34.0013 18.3056C33.8766 18.4058 33.8261 18.5613 33.8681 18.7157L35.2645 23.852C35.3082 24.0129 35.2509 24.1757 35.116 24.2736C34.9811 24.3716 34.8086 24.3758 34.6691 24.2845L30.2156 21.3693C30.0818 21.2816 29.9183 21.2816 29.7845 21.3693L25.3311 24.2845C25.1916 24.3758 25.019 24.3716 24.8843 24.2736C24.7494 24.1757 24.6921 24.0128 24.7358 23.852L26.1322 18.7157C26.1741 18.5613 26.1236 18.4058 25.9989 18.3056L21.8502 14.9711C21.7202 14.8666 21.6709 14.7012 21.7224 14.5426C21.7739 14.3841 21.9111 14.2793 22.0776 14.2711L27.3941 14.012C27.5539 14.0043 27.6861 13.9082 27.7428 13.7585L29.6321 8.78227C29.6913 8.62641 29.8333 8.52844 30.0001 8.52844C30.1668 8.52844 30.3089 8.62641 30.368 8.78227ZM20.0715 7.21676L23.3968 10.211C23.7811 10.5568 24.373 10.5257 24.7188 10.1414C25.0646 9.75715 25.0334 9.16524 24.6492 8.81942L21.3239 5.82516C20.9396 5.47934 20.3477 5.51051 20.0019 5.89477C19.6561 6.27903 19.6871 6.87094 20.0715 7.21676ZM38.6762 5.82516L35.3314 8.83688C34.9471 9.1827 34.916 9.77461 35.2618 10.1589C35.6076 10.5431 36.1995 10.5743 36.5838 10.2285L39.9286 7.21676C40.3128 6.87094 40.344 6.27903 39.9982 5.89477C39.6522 5.51051 39.0604 5.47934 38.6762 5.82516ZM30.9376 5.04598C30.9376 5.56371 30.5178 5.98348 30.0001 5.98348C29.4823 5.98348 29.0626 5.56371 29.0626 5.04598V1.60547C29.0626 1.08773 29.4823 0.667969 30.0001 0.667969C30.5178 0.667969 30.9376 1.08773 30.9376 1.60547V5.04598ZM30.0001 27.2926C33.6328 27.2926 36.5777 30.2375 36.5777 33.8701C36.5777 37.5028 33.6328 40.4477 30.0001 40.4477C26.3674 40.4477 23.4226 37.5028 23.4226 33.8701C23.4226 30.2374 26.3674 27.2926 30.0001 27.2926ZM42.9343 53.229C42.2359 46.7026 36.7118 41.6196 30.0001 41.6196C23.2883 41.6196 17.7642 46.7026 17.0657 53.2292V55.8586C17.0657 57.7735 18.6275 59.3352 20.5423 59.3352H39.4577C41.3725 59.3352 42.9343 57.7735 42.9343 55.8586V53.229ZM49.658 32.0692C52.3757 32.0692 54.5789 34.2724 54.5789 36.99C54.5789 39.7077 52.3757 41.9108 49.658 41.9108C46.9403 41.9108 44.7372 39.7077 44.7372 36.99C44.7371 34.2724 46.9402 32.0692 49.658 32.0692ZM10.3421 32.0692C13.0598 32.0692 15.2629 34.2724 15.2629 36.99C15.2629 39.7077 13.0598 41.9108 10.3421 41.9108C7.62441 41.9108 5.42129 39.7077 5.42129 36.99C5.42129 34.2724 7.62441 32.0692 10.3421 32.0692ZM10.342 43.2253C13.2098 43.2253 15.7878 44.4656 17.5691 46.4391C16.312 48.3424 15.4784 50.5574 15.2098 52.9581H3.16836C2.43863 52.9581 1.81074 52.6409 1.37773 52.0535C0.944724 51.4662 0.827419 50.7725 1.04328 50.0754C2.27199 46.1075 5.97054 43.2253 10.342 43.2253ZM49.6579 43.2253C54.0296 43.2253 57.728 46.1075 58.9566 50.0754C59.1725 50.7725 59.0552 51.4661 58.6222 52.0535C58.1892 52.641 57.5614 52.9581 56.8316 52.9581H44.7901C44.5215 50.5574 43.6878 48.3425 42.4309 46.4391C44.2122 44.4656 46.7902 43.2253 49.6579 43.2253ZM9.60324 8.78227L11.4925 13.7585C11.5494 13.9082 11.6816 14.0041 11.8414 14.012L17.1578 14.2711C17.3244 14.2792 17.4615 14.3841 17.513 14.5426C17.5645 14.7012 17.5153 14.8666 17.3853 14.9711L13.2365 18.3056C13.1118 18.4058 13.0613 18.5613 13.1033 18.7157L14.4997 23.852C14.5434 24.0129 14.4861 24.1757 14.3512 24.2736C14.2163 24.3716 14.0438 24.3758 13.9043 24.2845L9.45078 21.3693C9.31695 21.2816 9.15347 21.2816 9.01965 21.3693L4.56629 24.2845C4.42683 24.3758 4.25422 24.3716 4.11945 24.2736C3.98457 24.1757 3.92726 24.0128 3.97097 23.852L5.36738 18.7157C5.40933 18.5613 5.35883 18.4058 5.23414 18.3056L1.08535 14.9709C0.955388 14.8665 0.906052 14.7011 0.957615 14.5425C1.00906 14.3839 1.14629 14.2792 1.31281 14.271L6.62926 14.0119C6.7891 14.0041 6.92129 13.9081 6.97801 13.7584L8.86742 8.78227C8.9266 8.62641 9.06863 8.52844 9.23539 8.52844C9.40215 8.52844 9.54406 8.62641 9.60324 8.78227ZM51.0707 8.78227L52.96 13.7585C53.0169 13.9082 53.1491 14.0041 53.3089 14.012L58.6254 14.2711C58.7919 14.2792 58.929 14.3841 58.9805 14.5426C59.032 14.7012 58.9828 14.8666 58.8528 14.9711L54.704 18.3056C54.5793 18.4058 54.5288 18.5613 54.5708 18.7157L55.9672 23.852C56.0109 24.0129 55.9536 24.1757 55.8188 24.2736C55.6839 24.3716 55.5114 24.3758 55.3719 24.2845L50.9184 21.3693C50.7846 21.2816 50.6211 21.2816 50.4873 21.3693L46.0339 24.2845C45.8945 24.3758 45.7218 24.3716 45.587 24.2736C45.4521 24.1757 45.3948 24.0128 45.4385 23.852L46.8349 18.7157C46.8768 18.5613 46.8263 18.4058 46.7016 18.3056L42.5528 14.9711C42.4229 14.8666 42.3736 14.7012 42.4251 14.5426C42.4766 14.3841 42.6138 14.2793 42.7803 14.2711L48.0968 14.012C48.2566 14.0043 48.3888 13.9082 48.4455 13.7585L50.3348 8.78227C50.394 8.62641 50.536 8.52844 50.7028 8.52844C50.8695 8.52844 51.0116 8.62641 51.0707 8.78227Z" fill="url(#paint0_linear_14601_3563)"/>
</g>
<defs>
<linearGradient id="paint0_linear_14601_3563" x1="0.937499" y1="33.3016" x2="59.0621" y2="33.3016" gradientUnits="userSpaceOnUse">
<stop stop-color="#2981FA"/>
<stop offset="1" stop-color="#18A7F7"/>
</linearGradient>
<clipPath id="clip0_14601_3563">
<rect width="60" height="60" fill="white"/>
</clipPath>
</defs>
</svg>
