<svg width="60" height="60" viewBox="0 0 60 60" fill="none" xmlns="http://www.w3.org/2000/svg">
<g clip-path="url(#clip0_14601_3571)">
<path d="M52.7344 9.96094C52.7344 6.40699 49.843 3.51562 46.2891 3.51562H45V8.78906C45 9.75984 44.213 10.5469 43.2422 10.5469C42.2714 10.5469 41.4844 9.75984 41.4844 8.78906V3.51562H33.75V8.78906C33.75 9.75984 32.963 10.5469 31.9922 10.5469C31.0214 10.5469 30.2344 9.75984 30.2344 8.78906V3.51562H22.5V8.78906C22.5 9.75984 21.713 10.5469 20.7422 10.5469C19.7714 10.5469 18.9844 9.75984 18.9844 8.78906V3.51562H11.25V8.78906C11.25 9.75984 10.463 10.5469 9.49219 10.5469C8.52141 10.5469 7.73438 9.75984 7.73438 8.78906V3.51562H6.44531C2.89137 3.51562 0 6.40699 0 9.96094V15.2344H52.7344V9.96094Z" fill="url(#paint0_linear_14601_3571)"/>
<path d="M11.25 1.75781C11.25 0.787031 10.463 0 9.49219 0C8.52141 0 7.73438 0.787031 7.73438 1.75781V3.51562H11.25V1.75781Z" fill="url(#paint1_linear_14601_3571)"/>
<path d="M45 1.75781C45 0.787031 44.213 0 43.2422 0C42.2714 0 41.4844 0.787031 41.4844 1.75781V3.51562H45V1.75781Z" fill="url(#paint2_linear_14601_3571)"/>
<path d="M33.75 1.75781C33.75 0.787031 32.963 0 31.9922 0C31.0214 0 30.2344 0.787031 30.2344 1.75781V3.51562H33.75V1.75781Z" fill="url(#paint3_linear_14601_3571)"/>
<path d="M22.5 1.75781C22.5 0.787031 21.713 0 20.7422 0C19.7714 0 18.9844 0.787031 18.9844 1.75781V3.51562H22.5V1.75781Z" fill="url(#paint4_linear_14601_3571)"/>
<path d="M47.1094 30.7031C49.0845 30.7031 50.9791 31.0541 52.7344 31.6966V18.75H0V45.1172C0 48.025 2.36566 50.3906 5.27344 50.3906H31.033C30.8169 49.3301 30.7031 48.2327 30.7031 47.1094C30.7031 38.063 38.063 30.7031 47.1094 30.7031ZM40.5469 24.9023H43.4766C44.4473 24.9023 45.2344 25.6894 45.2344 26.6602C45.2344 27.6309 44.4473 28.418 43.4766 28.418H40.5469C39.5761 28.418 38.7891 27.6309 38.7891 26.6602C38.7891 25.6894 39.5761 24.9023 40.5469 24.9023ZM30.1172 24.9023H33.0469C34.0177 24.9023 34.8047 25.6894 34.8047 26.6602C34.8047 27.6309 34.0177 28.418 33.0469 28.418H30.1172C29.1464 28.418 28.3594 27.6309 28.3594 26.6602C28.3594 25.6894 29.1464 24.9023 30.1172 24.9023ZM12.1875 44.2383H9.25781C8.28703 44.2383 7.5 43.4513 7.5 42.4805C7.5 41.5097 8.28703 40.7227 9.25781 40.7227H12.1875C13.1583 40.7227 13.9453 41.5097 13.9453 42.4805C13.9453 43.4513 13.1583 44.2383 12.1875 44.2383ZM12.1875 36.3281H9.25781C8.28703 36.3281 7.5 35.5411 7.5 34.5703C7.5 33.5995 8.28703 32.8125 9.25781 32.8125H12.1875C13.1583 32.8125 13.9453 33.5995 13.9453 34.5703C13.9453 35.5411 13.1583 36.3281 12.1875 36.3281ZM22.6172 44.2383H19.6875C18.7167 44.2383 17.9297 43.4513 17.9297 42.4805C17.9297 41.5097 18.7167 40.7227 19.6875 40.7227H22.6172C23.588 40.7227 24.375 41.5097 24.375 42.4805C24.375 43.4513 23.588 44.2383 22.6172 44.2383ZM22.6172 36.3281H19.6875C18.7167 36.3281 17.9297 35.5411 17.9297 34.5703C17.9297 33.5995 18.7167 32.8125 19.6875 32.8125H22.6172C23.588 32.8125 24.375 33.5995 24.375 34.5703C24.375 35.5411 23.588 36.3281 22.6172 36.3281ZM22.6172 28.418H19.6875C18.7167 28.418 17.9297 27.6309 17.9297 26.6602C17.9297 25.6894 18.7167 24.9023 19.6875 24.9023H22.6172C23.588 24.9023 24.375 25.6894 24.375 26.6602C24.375 27.6309 23.588 28.418 22.6172 28.418ZM28.3594 34.5703C28.3594 33.5995 29.1464 32.8125 30.1172 32.8125H33.0469C34.0177 32.8125 34.8047 33.5995 34.8047 34.5703C34.8047 35.5411 34.0177 36.3281 33.0469 36.3281H30.1172C29.1464 36.3281 28.3594 35.5411 28.3594 34.5703Z" fill="url(#paint5_linear_14601_3571)"/>
<path d="M47.1094 34.2188C40.0015 34.2188 34.2188 40.0015 34.2188 47.1094C34.2188 54.2173 40.0015 60 47.1094 60C54.2173 60 60 54.2173 60 47.1094C60 40.0015 54.2173 34.2188 47.1094 34.2188ZM52.9688 48.8672H47.1094C46.1386 48.8672 45.3516 48.0802 45.3516 47.1094V41.25C45.3516 40.2792 46.1386 39.4922 47.1094 39.4922C48.0802 39.4922 48.8672 40.2792 48.8672 41.25V45.3516H52.9688C53.9395 45.3516 54.7266 46.1386 54.7266 47.1094C54.7266 48.0802 53.9395 48.8672 52.9688 48.8672Z" fill="url(#paint6_linear_14601_3571)"/>
</g>
<defs>
<linearGradient id="paint0_linear_14601_3571" x1="-4.77621e-07" y1="10.0342" x2="52.7344" y2="10.0342" gradientUnits="userSpaceOnUse">
<stop stop-color="#2981FA"/>
<stop offset="1" stop-color="#18A7F7"/>
</linearGradient>
<linearGradient id="paint1_linear_14601_3571" x1="7.73437" y1="1.95557" x2="11.25" y2="1.95557" gradientUnits="userSpaceOnUse">
<stop stop-color="#2981FA"/>
<stop offset="1" stop-color="#18A7F7"/>
</linearGradient>
<linearGradient id="paint2_linear_14601_3571" x1="41.4844" y1="1.95557" x2="45" y2="1.95557" gradientUnits="userSpaceOnUse">
<stop stop-color="#2981FA"/>
<stop offset="1" stop-color="#18A7F7"/>
</linearGradient>
<linearGradient id="paint3_linear_14601_3571" x1="30.2344" y1="1.95557" x2="33.75" y2="1.95557" gradientUnits="userSpaceOnUse">
<stop stop-color="#2981FA"/>
<stop offset="1" stop-color="#18A7F7"/>
</linearGradient>
<linearGradient id="paint4_linear_14601_3571" x1="18.9844" y1="1.95557" x2="22.5" y2="1.95557" gradientUnits="userSpaceOnUse">
<stop stop-color="#2981FA"/>
<stop offset="1" stop-color="#18A7F7"/>
</linearGradient>
<linearGradient id="paint5_linear_14601_3571" x1="-4.77621e-07" y1="36.3501" x2="52.7344" y2="36.3501" gradientUnits="userSpaceOnUse">
<stop stop-color="#2981FA"/>
<stop offset="1" stop-color="#18A7F7"/>
</linearGradient>
<linearGradient id="paint6_linear_14601_3571" x1="34.2187" y1="48.5596" x2="60" y2="48.5596" gradientUnits="userSpaceOnUse">
<stop stop-color="#2981FA"/>
<stop offset="1" stop-color="#18A7F7"/>
</linearGradient>
<clipPath id="clip0_14601_3571">
<rect width="60" height="60" fill="white"/>
</clipPath>
</defs>
</svg>
