<svg width="117" height="40" viewBox="0 0 117 40" fill="none" xmlns="http://www.w3.org/2000/svg">
<g clip-path="url(#clip0_16601_1540)">
<mask id="mask0_16601_1540" style="mask-type:luminance" maskUnits="userSpaceOnUse" x="0" y="0" width="117" height="40">
<path d="M0 0H117V40H0V0Z" fill="white"/>
</mask>
<g mask="url(#mask0_16601_1540)">
<mask id="mask1_16601_1540" style="mask-type:luminance" maskUnits="userSpaceOnUse" x="-3" y="-1" width="123" height="41">
<path d="M119.147 -0.100098H-2.47296V39.8999H119.146L119.147 -0.100098Z" fill="white"/>
</mask>
<g mask="url(#mask1_16601_1540)">
<path d="M44.0275 28.8932H33.5015V9.97724H43.4678C44.9037 9.97724 46.0897 10.1466 47.023 10.4866C47.975 10.8066 48.6836 11.3132 49.1503 12.0106C49.6156 12.6879 49.8496 13.5639 49.8496 14.6372C49.8496 15.8226 49.5332 16.7639 48.8977 17.4599C48.2635 18.1572 47.3022 18.5612 46.0152 18.6732V19.0412C47.6014 19.0972 48.7767 19.5586 49.5425 20.4252C50.3269 21.2919 50.7178 22.3639 50.7178 23.6439C50.7178 24.7359 50.4758 25.6772 49.9906 26.4666C49.5239 27.2572 48.7953 27.8599 47.8061 28.2746C46.8169 28.6879 45.5578 28.8959 44.0275 28.8959V28.8932ZM38.7639 21.2986V24.1226H43.8321C44.3347 24.1226 44.7176 24.0466 44.9795 23.8959C45.2401 23.7452 45.3704 23.3599 45.3704 22.7386C45.3704 22.0986 45.2507 21.7039 45.0074 21.5519C44.7641 21.3839 44.3732 21.2986 43.8321 21.2986H38.7639ZM38.7639 14.7479V17.1759H43.1873C43.7284 17.1759 44.0914 17.0919 44.2788 16.9226C44.4849 16.7532 44.5873 16.4332 44.5873 15.9626C44.5873 15.4546 44.4663 15.1252 44.223 14.9746C43.9996 14.8239 43.6167 14.7479 43.0756 14.7479H38.7639ZM58.6499 29.1759C57.101 29.1759 55.7754 28.8839 54.6745 28.3012C53.6122 27.7192 52.7453 26.835 52.183 25.7599C51.6246 24.6492 51.3427 23.3226 51.3427 21.7786C51.3427 20.1786 51.6325 18.8052 52.2109 17.6572C52.7638 16.535 53.6551 15.616 54.7583 15.0306C55.8791 14.4092 57.2313 14.0986 58.8174 14.0986C60.3663 14.0986 61.6547 14.3812 62.6811 14.9466C63.7261 15.5106 64.4999 16.2919 65.0051 17.2892C65.5263 18.2679 65.7882 19.4066 65.7882 20.7066C65.7882 21.1012 65.7603 21.4959 65.7044 21.8919C65.6486 22.2866 65.6021 22.6066 65.5648 22.8519H53.583V19.9719H61.0018L60.7772 20.1132C60.8017 19.8024 60.7439 19.4905 60.6096 19.2092C60.4966 18.9266 60.2733 18.7012 59.9369 18.5319C59.6205 18.3626 59.1538 18.2786 58.5382 18.2786C57.6793 18.2786 57.0823 18.4386 56.746 18.7586C56.4096 19.0586 56.2421 19.5479 56.2421 20.2252V22.2306C56.2421 22.9279 56.2979 23.4639 56.4096 23.8399C56.5226 24.1972 56.7553 24.4426 57.1103 24.5732C57.4653 24.7066 58.0064 24.7719 58.7336 24.7719C59.3678 24.7719 59.8066 24.7052 60.0499 24.5746C60.2919 24.4239 60.4142 24.1879 60.4142 23.8679V23.8119H65.6207V24.1506C65.6207 25.1292 65.3308 25.9959 64.7525 26.7479C64.1928 27.5012 63.3897 28.0946 62.346 28.5266C61.3183 28.9599 60.0858 29.1759 58.6499 29.1759ZM72.1953 28.8946H66.9595V14.3812H71.8589V18.5039L72.1953 18.6452V28.8946ZM72.1953 19.7172H71.1317V16.5839H72.1115C72.5137 15.8775 73.0678 15.2699 73.7336 14.8052C74.4249 14.3346 75.2466 14.0986 76.1985 14.0986C77.1306 14.0986 77.8685 14.2866 78.4096 14.6639C78.9507 15.0399 79.3429 15.5759 79.5849 16.2732C79.8282 16.9692 79.9492 17.7972 79.9492 18.7572V21.3839H74.6855V19.9439C74.6855 19.3972 74.6111 19.0306 74.4622 18.8426C74.3133 18.6546 73.9968 18.5599 73.5102 18.5599C73.0808 18.5599 72.755 18.6266 72.5303 18.7572C72.307 18.8706 72.1953 19.1906 72.1953 19.7172ZM86.1103 28.8946H80.8746V9.9759H86.1103V28.8946ZM93.0266 13.0812H87.7895V9.97724H93.0253V13.0839L93.0266 13.0812ZM93.0545 28.8946H87.7909V14.3812H93.0545V28.8946ZM109.714 28.8946H104.449V20.7066C104.449 19.9332 104.309 19.3972 104.03 19.0959C103.768 18.7959 103.171 18.6452 102.238 18.6452C101.659 18.6452 101.202 18.7012 100.866 18.8146C100.565 18.9137 100.314 19.1259 100.166 19.4066C100.036 19.6892 99.9695 20.0946 99.9695 20.6212H99.1305V16.5839H99.8857C100.148 16.0372 100.511 15.5866 100.977 15.2279C101.46 14.8435 102.011 14.556 102.602 14.3812C103.247 14.1887 103.917 14.0934 104.59 14.0986C105.839 14.0986 106.838 14.3519 107.584 14.8612C108.331 15.3506 108.873 16.0186 109.208 16.8652C109.553 17.7371 109.724 18.6677 109.714 19.6052V28.8946ZM99.9695 28.8946H94.7351V14.3812H99.6344V18.3626L99.9695 18.5039V28.8946ZM117.546 28.8946H111.275V23.0492H117.545L117.546 28.8946ZM23.1896 5.78257H-0.139953C-0.76033 5.78469 -1.35448 6.03378 -1.79178 6.47507C-2.22908 6.91637 -2.47374 7.51376 -2.47198 8.1359V31.6652C-2.47339 32.2872 -2.22857 32.8842 -1.79131 33.3252C-1.35404 33.7662 -0.760099 34.0151 -0.139953 34.0172H23.1896C24.4779 34.0172 25.5216 32.9639 25.5216 31.6652V8.1359C25.5234 7.51376 25.2787 6.91637 24.8414 6.47507C24.4041 6.03378 23.81 5.78469 23.1896 5.78257ZM19.6902 3.42924H3.36074C3.05067 3.42818 2.75369 3.30373 2.53506 3.08322C2.31643 2.86272 2.19402 2.56419 2.19473 2.25324V1.07724C2.1942 0.923151 2.22395 0.770472 2.28226 0.627915C2.34057 0.485358 2.42632 0.355716 2.53459 0.24639C2.64287 0.137065 2.77155 0.0501965 2.9133 -0.00925404C3.05505 -0.0687046 3.20709 -0.0995733 3.36074 -0.100098H19.6902C19.8439 -0.0995733 19.9959 -0.0687046 20.1377 -0.00925404C20.2794 0.0501965 20.4081 0.137065 20.5164 0.24639C20.6246 0.355716 20.7104 0.485358 20.7687 0.627915C20.827 0.770472 20.8568 0.923151 20.8562 1.07724V2.25324C20.8569 2.56419 20.7345 2.86272 20.5159 3.08322C20.2973 3.30373 20.0003 3.42818 19.6902 3.42924ZM19.6902 39.9012H3.36074C3.05067 39.9002 2.75369 39.7757 2.53506 39.5552C2.31643 39.3347 2.19402 39.0362 2.19473 38.7252V37.5479C2.19402 37.237 2.31643 36.9384 2.53506 36.7179C2.75369 36.4974 3.05067 36.373 3.36074 36.3719H19.6902C20.0003 36.373 20.2973 36.4974 20.5159 36.7179C20.7345 36.9384 20.8569 37.237 20.8562 37.5479V38.7252C20.8569 39.0362 20.7345 39.3347 20.5159 39.5552C20.2973 39.7757 20.0003 39.9002 19.6902 39.9012Z" fill="#B0B3B6"/>
<path fill-rule="evenodd" clip-rule="evenodd" d="M20.9244 16.4423C21.1432 16.6636 21.2661 16.9627 21.2661 17.2743C21.2661 17.586 21.1432 17.8851 20.9244 18.1063L11.7638 27.3463C11.6558 27.4554 11.5274 27.5419 11.3859 27.6009C11.2444 27.6599 11.0927 27.6903 10.9395 27.6903C10.7862 27.6903 10.6345 27.6599 10.493 27.6009C10.3516 27.5419 10.2231 27.4554 10.1151 27.3463L3.2866 20.4597C3.06771 20.2384 2.94489 19.9394 2.94489 19.6277C2.94489 19.316 3.06771 19.0169 3.2866 18.7957L5.76089 16.2997C5.86889 16.1907 5.99732 16.1042 6.13879 16.0451C6.28026 15.9861 6.43197 15.9557 6.5852 15.9557C6.73843 15.9557 6.89015 15.9861 7.03162 16.0451C7.17309 16.1042 7.30152 16.1907 7.40952 16.2997L10.9395 19.8597L16.8001 13.9477C16.9081 13.8385 17.0366 13.7518 17.1782 13.6926C17.3198 13.6335 17.4717 13.603 17.6251 13.603C17.7785 13.603 17.9303 13.6335 18.0719 13.6926C18.2135 13.7518 18.342 13.8385 18.4501 13.9477L20.9244 16.4423Z" fill="#B0B3B6"/>
</g>
</g>
</g>
<defs>
<clipPath id="clip0_16601_1540">
<rect width="117" height="40" fill="white"/>
</clipPath>
</defs>
</svg>
