<svg width="40" height="40" viewBox="0 0 40 40" fill="none" xmlns="http://www.w3.org/2000/svg">
<rect width="40" height="40" rx="20" fill="#FFC857"/>
<path fill-rule="evenodd" clip-rule="evenodd" d="M19.9999 29.6C25.3018 29.6 29.5999 25.302 29.5999 20C29.5999 14.6981 25.3018 10.4 19.9999 10.4C14.698 10.4 10.3999 14.6981 10.3999 20C10.3999 25.302 14.698 29.6 19.9999 29.6ZM24.4484 18.4486C24.9171 17.9799 24.9171 17.2201 24.4484 16.7515C23.9798 16.2829 23.22 16.2829 22.7514 16.7515L18.7999 20.703L17.2484 19.1515C16.7798 18.6829 16.02 18.6829 15.5514 19.1515C15.0827 19.6201 15.0827 20.3799 15.5514 20.8486L17.9514 23.2486C18.42 23.7172 19.1798 23.7172 19.6484 23.2486L24.4484 18.4486Z" fill="#0B2545"/>
</svg>
