<svg width="24" height="18" viewBox="0 0 24 18" fill="none" xmlns="http://www.w3.org/2000/svg">
<g clip-path="url(#clip0_16601_1354)">
<path d="M3.04811 8.92849C3.04811 9.12321 3.04811 9.26352 3.04811 9.40478C3.04811 11.1382 3.05 12.8715 3.04623 14.6059C3.04623 14.8483 3.06506 15.0659 3.21855 15.2778C3.31178 15.4057 3.33532 15.6043 3.34191 15.7732C3.35792 16.218 3.35321 16.6638 3.34568 17.1086C3.33626 17.6421 3.066 17.9323 2.54244 17.9724C2.33999 17.9877 2.13376 17.9896 1.93131 17.9705C1.48119 17.9285 1.17892 17.6211 1.16103 17.1592C1.14125 16.6666 1.14125 16.1722 1.1648 15.6806C1.17233 15.5184 1.25519 15.3446 1.34842 15.2072C1.46142 15.0421 1.52074 14.8827 1.5198 14.6803C1.51509 12.5966 1.51603 10.513 1.5198 8.43024C1.5198 8.26034 1.48967 8.12766 1.34842 8.01503C0.0159726 6.94885 0.293762 4.86899 1.88328 4.14071C2.56881 3.82667 3.25434 3.51264 3.93986 3.19957C4.78265 2.8149 5.62731 2.43406 6.46916 2.04748C7.61045 1.52251 8.74609 0.983212 9.89208 0.46969C11.3338 -0.175553 12.7736 -0.15169 14.2115 0.512643C16.7351 1.67809 19.2606 2.83876 21.7937 3.9813C22.5122 4.30583 23.0932 4.73536 23.3729 5.51232C23.7213 6.47924 23.3465 7.73441 22.241 8.28897C21.483 8.66886 20.7051 9.00867 19.9339 9.36183C18.8058 9.87822 17.6749 10.3879 16.5477 10.9053C15.7049 11.2918 14.8697 11.6918 14.025 12.0726C13.3291 12.3857 12.589 12.547 11.8328 12.5165C11.0447 12.484 10.3045 12.2311 9.58416 11.8932C7.47956 10.9072 5.36365 9.94408 3.25151 8.9743C3.21102 8.95617 3.16299 8.95426 3.04623 8.92944L3.04811 8.92849Z" fill="#0B2545"/>
<path d="M19.6373 11.0122C19.6373 11.4627 19.6458 11.856 19.6354 12.2492C19.6241 12.6759 19.6269 13.1073 19.5667 13.5283C19.4085 14.6288 18.8171 15.4449 17.9263 16.0806C16.6344 17.0017 15.2125 17.5983 13.6644 17.8589C11.7867 18.1748 9.95518 17.961 8.18392 17.2384C7.27616 16.8681 6.43714 16.3851 5.67911 15.7551C4.88435 15.0946 4.45213 14.2317 4.37209 13.2123C4.31653 12.506 4.36173 11.7911 4.36173 11.0189C4.66118 11.1439 4.90601 11.2375 5.14331 11.3453C6.52754 11.9782 7.90896 12.6186 9.29508 13.2486C11.1106 14.0742 12.9261 14.0828 14.7416 13.2352C16.1777 12.5642 17.6193 11.9047 19.0591 11.2422C19.2267 11.1649 19.4019 11.1057 19.6382 11.0132L19.6373 11.0122Z" fill="#0B2545"/>
</g>
<defs>
<clipPath id="clip0_16601_1354">
<rect width="23" height="18" fill="white" transform="translate(0.5)"/>
</clipPath>
</defs>
</svg>
