<svg width="20" height="20" viewBox="0 0 20 20" fill="none" xmlns="http://www.w3.org/2000/svg">
<g clip-path="url(#clip0_16601_1377)">
<path d="M9.98726 14.3365C5.99236 14.3201 2.69136 11.1701 2.70488 7.14837C2.71839 3.05793 6.11795 -0.0140111 10.0278 4.80628e-05C13.9249 0.0141073 17.311 3.10479 17.2895 7.20773C17.268 11.2349 13.9464 14.335 9.98726 14.3365ZM12.5562 9.67434C12.5435 9.59155 12.5244 9.4494 12.5006 9.3088C12.4338 8.91124 12.3734 8.5129 12.2923 8.11768C12.2565 7.94272 12.3018 7.82634 12.4314 7.70606C12.7978 7.36785 13.1507 7.01481 13.5124 6.67036C13.723 6.46963 13.797 6.22984 13.7016 5.95959C13.6118 5.70496 13.4154 5.56827 13.138 5.53078C12.6794 5.4683 12.2247 5.36676 11.7645 5.33395C11.4657 5.31208 11.3234 5.18165 11.2105 4.93249C11.0229 4.51696 10.8147 4.11002 10.5985 3.70777C10.4284 3.39144 10.1701 3.28287 9.83941 3.35004C9.6097 3.39691 9.47299 3.54844 9.37523 3.74136C9.16777 4.14751 8.95396 4.55211 8.76478 4.96607C8.66304 5.18868 8.53746 5.3074 8.27039 5.32927C7.81017 5.36676 7.35473 5.46361 6.8961 5.52297C6.60757 5.56046 6.38978 5.68543 6.29361 5.95881C6.19266 6.24702 6.28804 6.48993 6.51139 6.6977C6.83808 7.00231 7.14489 7.32802 7.4819 7.62014C7.68538 7.79588 7.76328 7.98021 7.68697 8.23249C7.67187 8.28248 7.66631 8.33481 7.65756 8.38558C7.59318 8.74409 7.52721 9.10182 7.46441 9.46033C7.4509 9.53688 7.44375 9.61576 7.44216 9.69309C7.43103 10.2227 7.89443 10.5359 8.38644 10.3101C8.82917 10.1071 9.26395 9.88211 9.6876 9.64232C9.90936 9.51657 10.0866 9.51501 10.3092 9.64154C10.7328 9.88133 11.1668 10.1063 11.6095 10.3101C12.0841 10.5288 12.5483 10.2344 12.5562 9.672V9.67434Z" fill="#0B2545"/>
<path d="M2.89727 11.97C4.29937 13.8773 6.15455 15.0528 8.50173 15.5066C8.44211 15.6457 8.40078 15.7519 8.3515 15.8558C7.78795 17.0461 7.22441 18.2357 6.65927 19.4253C6.61476 19.519 6.57343 19.6166 6.51382 19.7018C6.21654 20.1259 5.61008 20.0938 5.37719 19.6315C5.25478 19.3878 5.17371 19.1245 5.07753 18.8684C4.86372 18.2951 4.65308 17.7202 4.43927 17.1469C4.29381 16.7579 4.24771 16.7345 3.863 16.8712C3.08008 17.15 2.29875 17.4335 1.51503 17.7116C1.32903 17.778 1.14384 17.8381 0.937176 17.7553C0.60334 17.6218 0.430859 17.3125 0.524651 16.9711C0.545317 16.8962 0.576316 16.8243 0.609699 16.754C1.3346 15.2223 2.06029 13.6907 2.78678 12.1598C2.81301 12.1051 2.84799 12.0535 2.89647 11.97H2.89727Z" fill="#0B2545"/>
<path d="M17.1083 11.9534C17.6981 13.1977 18.2624 14.3864 18.8268 15.5752C19.0279 15.9993 19.2345 16.4203 19.4309 16.8468C19.6375 17.2975 19.3562 17.7161 18.9563 17.7778C18.7982 17.802 18.6162 17.7528 18.4588 17.6982C17.7227 17.4443 16.9915 17.1772 16.2586 16.914C16.2213 16.9007 16.1847 16.8866 16.1474 16.8734C15.7531 16.7367 15.7022 16.7585 15.5608 17.1327C15.4002 17.5591 15.2428 17.9864 15.0839 18.4136C14.9479 18.7799 14.8136 19.1463 14.6777 19.5126C14.5736 19.7938 14.3812 19.9758 14.0672 19.9922C13.7533 20.0086 13.5411 19.8508 13.4115 19.5774C12.7852 18.2582 12.1596 16.939 11.5349 15.6197C11.5245 15.5987 11.5301 15.5698 11.5253 15.5041C13.8328 15.0535 15.6911 13.885 17.1091 11.9526L17.1083 11.9534Z" fill="#0B2545"/>
</g>
<defs>
<clipPath id="clip0_16601_1377">
<rect width="19" height="20" fill="white" transform="translate(0.5)"/>
</clipPath>
</defs>
</svg>
