<svg width="20" height="20" viewBox="0 0 20 20" fill="none" xmlns="http://www.w3.org/2000/svg">
<g clip-path="url(#clip0_16601_1365)">
<path d="M13.8661 14.22C14.3049 11.3421 12.2038 9.53702 10.1792 9.46206C8.90576 9.41522 7.83997 9.88289 7.00453 10.844C6.16595 11.809 5.93952 12.9489 6.13004 14.22H5.7576C4.10544 14.22 2.45329 14.22 0.801129 14.22C0.748816 14.22 0.697284 14.2216 0.64497 14.22C0.237397 14.2029 0.0211171 13.9936 0.00159732 13.5931C-0.00230664 13.515 0.000816528 13.4369 0.000816528 13.3588C0.000816528 9.1966 0.000816528 5.03358 0.000816528 0.871338C0.000816528 0.793262 -0.00230664 0.715185 0.00159732 0.637109C0.0211171 0.236578 0.235835 0.0249918 0.642628 0.00859577C0.720707 0.00547272 0.798786 0.00859577 0.876866 0.00859577C6.95143 0.007815 13.0268 0.0132803 19.1013 7.38395e-06C19.7814 -0.00155414 20.0024 0.244386 20 0.896322C19.9844 5.04607 19.9844 9.19504 20 13.3448C20.0024 14.0147 19.7369 14.238 19.1279 14.2286C17.5156 14.2052 15.9017 14.2208 14.2893 14.2208H13.8661V14.22ZM10.0379 4.14585C8.07421 4.14585 6.11052 4.14585 4.14682 4.14585C4.04298 4.14585 3.93835 4.13961 3.83451 4.14976C3.52375 4.17943 3.29654 4.41287 3.28483 4.70644C3.27312 4.99845 3.48627 5.25532 3.79078 5.30528C3.87979 5.32012 3.97193 5.31387 4.06328 5.31387C8.01643 5.31387 11.9704 5.31387 15.9235 5.31387C16.0141 5.31387 16.107 5.32012 16.196 5.30607C16.5021 5.25766 16.7168 5.00469 16.7074 4.71191C16.6981 4.41678 16.474 4.18099 16.1624 4.14976C16.0594 4.13961 15.9548 4.14585 15.8501 4.14585C13.9122 4.14585 11.9743 4.14585 10.0371 4.14585H10.0379ZM10.0004 7.65694C10.9616 7.65694 11.9227 7.65694 12.8839 7.65694C12.9877 7.65694 13.0939 7.66397 13.1946 7.64523C13.4984 7.58823 13.6912 7.33292 13.6725 7.02921C13.6553 6.74813 13.4437 6.52874 13.1486 6.49439C13.0588 6.48424 12.9667 6.4897 12.8761 6.4897C10.9538 6.4897 9.03146 6.4897 7.10915 6.4897C7.01858 6.4897 6.92645 6.48424 6.83666 6.49517C6.54308 6.53186 6.33383 6.75516 6.31977 7.03702C6.30494 7.34073 6.50091 7.59214 6.8062 7.64679C6.90771 7.66475 7.01311 7.65772 7.11696 7.65772C8.07812 7.65772 9.03927 7.65772 10.0004 7.65772V7.65694ZM10.0043 2.97237C10.9538 2.97237 11.9024 2.97237 12.8519 2.97237C12.9557 2.97237 13.0611 2.9794 13.1634 2.96456C13.4601 2.92162 13.6623 2.69832 13.6741 2.4149C13.6865 2.11197 13.5249 1.91912 13.1931 1.86056C13.0533 1.83636 12.9089 1.83089 12.7668 1.83011C10.8819 1.81996 8.99633 1.81294 7.11149 1.80513C7.02092 1.80513 6.92879 1.79888 6.839 1.80981C6.54464 1.84573 6.33539 2.06903 6.32133 2.35166C6.3065 2.65538 6.50248 2.90757 6.80777 2.96144C6.90927 2.9794 7.01546 2.97237 7.1193 2.97237C8.08124 2.97237 9.04317 2.97237 10.0051 2.97237H10.0043Z" fill="#0B2545"/>
<path d="M7.2356 13.397C7.20437 11.862 8.50595 10.6191 10.0059 10.6245C11.5058 10.6308 12.7542 11.873 12.7628 13.3775C12.7722 14.9133 11.512 16.164 10.0051 16.1695C8.50127 16.175 7.20437 14.9312 7.23482 13.397H7.2356Z" fill="#0B2545"/>
<path d="M13.5577 15.1304C13.82 15.6403 14.0629 16.1126 14.3065 16.585C14.497 16.9543 14.693 17.3205 14.8811 17.6905C15.0865 18.095 14.8413 18.4752 14.5024 18.5509C14.4056 18.5728 14.2971 18.5634 14.1972 18.5455C13.7256 18.4619 13.2555 18.3706 12.7574 18.2769C12.5669 18.6478 12.3779 19.0155 12.189 19.3824C12.1359 19.4863 12.089 19.5948 12.0266 19.6932C11.7666 20.1015 11.2575 20.1031 11.0092 19.6862C10.8632 19.4418 10.7484 19.1787 10.6203 18.9234C10.4345 18.5517 10.2495 18.1801 10.0621 17.8092C10.0519 17.7889 10.0246 17.778 9.98166 17.7428C9.93091 17.8311 9.87781 17.9138 9.83409 18.0005C9.59517 18.476 9.35859 18.953 9.12044 19.4285C9.07984 19.5097 9.0408 19.5925 8.99396 19.6698C8.73005 20.1047 8.21629 20.1101 7.95784 19.6745C7.81886 19.4402 7.70721 19.1904 7.58228 18.9483C7.46985 18.7305 7.35585 18.5135 7.23327 18.2792C6.73903 18.3721 6.25572 18.4565 5.77553 18.5548C5.51553 18.6079 5.31252 18.5283 5.15558 18.33C5.00411 18.1379 4.99552 17.9185 5.10249 17.7062C5.52333 16.8723 5.95121 16.0408 6.37752 15.2101C6.38845 15.189 6.41578 15.1765 6.43608 15.1601C8.00782 18.07 11.9625 18.045 13.5577 15.1296V15.1304Z" fill="#0B2545"/>
</g>
<defs>
<clipPath id="clip0_16601_1365">
<rect width="20" height="20" fill="white"/>
</clipPath>
</defs>
</svg>
