<svg width="24" height="24" viewBox="0 0 24 24" fill="none" xmlns="http://www.w3.org/2000/svg">
<path d="M14.7313 12.1797L15.9808 10.968C16.0717 11.2979 16.125 11.6427 16.125 12C16.125 14.2057 14.2746 16 12 16C11.6315 16 11.2759 15.9483 10.9358 15.8602L12.1853 14.6485C13.5515 14.5582 14.6381 13.5045 14.7313 12.1797ZM22.9134 11.6762C22.8288 11.5287 21.6295 9.49086 19.2851 7.76386L18.2846 8.73403C19.9941 9.95286 21.0772 11.3744 21.5037 12.001C20.6888 13.2042 17.4923 17.3333 12 17.3333C11.1764 17.3333 10.4105 17.2312 9.68983 17.0682L8.56009 18.1637C9.59873 18.4725 10.7403 18.6667 12 18.6667C19.1969 18.6667 22.765 12.5827 22.9134 12.3239C23.0289 12.1224 23.0289 11.8777 22.9134 11.6762ZM20.0486 5.13804L4.92356 19.8047C4.78933 19.9348 4.61333 20 4.4375 20C4.26167 20 4.08567 19.9348 3.95144 19.8047C3.6828 19.5442 3.6828 19.1223 3.95144 18.862L5.87575 16.996C2.76481 15.1748 1.18408 12.494 1.08663 12.3239C0.971125 12.1224 0.971125 11.8775 1.08663 11.676C1.23495 11.4174 4.80308 5.33337 12 5.33337C13.8609 5.33337 15.4727 5.74504 16.8507 6.3537L19.0764 4.19537C19.3451 3.93488 19.7801 3.93488 20.0486 4.19537C20.317 4.45587 20.3172 4.87771 20.0486 5.13804ZM6.90098 16.0018L8.64156 14.314C8.16083 13.66 7.875 12.8625 7.875 12C7.875 9.79436 9.72541 8.00003 12 8.00003C12.8895 8.00003 13.7119 8.2772 14.3863 8.7432L15.7938 7.37837C14.6818 6.94653 13.4181 6.6667 12 6.6667C6.50773 6.6667 3.3112 10.7959 2.49652 11.999C3.01386 12.7594 4.50092 14.684 6.90098 16.0018ZM9.63964 13.346L13.3881 9.71119C12.9792 9.47703 12.5084 9.33336 12 9.33336C10.4837 9.33336 9.25 10.5297 9.25 12C9.25 12.493 9.39816 12.9495 9.63964 13.346Z" fill="#0B2545"/>
</svg>
